<svg xmlns="http://www.w3.org/2000/svg" width="238" height="51" fill="none" viewBox="0 0 238 51">
    <path fill="#000" d="M27.277 24.97l2.977 2.988-4.034 4.05-2.689-2.7c-2.401 1.832-5.378 2.7-8.836 2.7-5.379-.097-9.893-2.121-12.678-7.135C.672 22.463 0 19.474 0 16.003c0-3.47.672-6.459 2.017-8.965C4.802 2.12 9.317 0 14.695 0c2.69 0 5.09.578 7.3 1.735 4.321 2.218 7.395 7.327 7.395 14.269-.096 3.47-.768 6.555-2.113 8.966zm-11.91-3.857l4.034-4.049 3.362 3.471c.48-1.253.672-2.796.672-4.628 0-3.567-.864-6.17-2.497-7.905-1.633-1.832-3.746-2.7-6.243-2.7-2.497 0-4.61.868-6.34 2.7-1.632 1.832-2.496 4.435-2.496 7.905 0 3.567.864 6.17 2.497 7.906 1.729 1.832 3.746 2.7 6.339 2.7 1.825 0 3.361-.483 4.802-1.35l-4.13-4.05zM53.977 31.622h-5.474v-3.664c-1.825 2.603-4.13 3.953-6.915 3.953-4.13 0-6.916-2.41-6.916-6.748v-16.1h5.475v14.364c0 2.41 1.056 3.664 3.17 3.664 2.88 0 5.09-3.471 5.09-9.159v-8.87h5.474v22.56h.096zM60.028 15.04c.673-3.76 4.034-6.267 8.548-6.267 6.243 0 9.413 3.085 9.413 9.448v13.4h-4.514l-.577-2.891c-1.728 2.12-4.034 3.181-6.915 3.181-3.938 0-6.82-2.507-6.82-6.845 0-4.435 3.843-7.327 9.605-7.327h3.746v-.964c0-2.217-1.248-3.278-3.938-3.278-2.017 0-3.265.868-3.841 2.603l-4.707-1.06zm7.3 12.147c1.344 0 2.593-.482 3.553-1.253 1.057-.868 1.633-1.928 1.633-3.375v-.385h-3.65c-2.497 0-3.841.964-3.841 2.892 0 1.157.768 2.121 2.305 2.121zM88.842 31.622h-5.475V9.062h5.475v3.664c1.633-2.507 4.034-4.05 6.627-4.05.864 0 1.729.097 2.69.483l-1.057 5.11c-.673-.386-1.441-.579-2.305-.579-3.554 0-5.955 3.085-5.955 9.93v8.002zM121.689 22.174h-15.463c.096 2.7 2.113 5.11 5.282 5.11 2.306 0 4.13-1.157 5.379-3.471l4.418 1.639c-1.921 4.338-5.282 6.556-10.181 6.556-7.683 0-10.757-6.267-10.757-11.57 0-5.398 3.074-11.568 10.757-11.568 3.554 0 6.435 1.446 8.068 3.76 1.633 2.217 2.401 4.82 2.401 7.326v2.218h.096zm-15.271-4.435h9.605c-.577-2.892-2.209-4.242-4.803-4.242-2.593 0-4.418 1.928-4.802 4.242zM126.78 9.062h5.474v3.568c1.825-2.604 4.13-3.953 6.915-3.953 4.13 0 6.916 2.41 6.916 6.748v16.1h-5.475V17.162c0-2.41-1.056-3.664-3.169-3.664-2.882 0-5.091 3.47-5.091 9.159v8.966h-5.57V9.062zM165.39 31.14c-1.153.578-2.401.771-3.65.771-5.186 0-8.26-2.796-8.26-8.291v-9.834h-3.457V9.062h3.457V3.471L158.955 0v9.062h5.955v4.724h-5.955v9.738c0 2.7.96 3.663 2.977 3.663.769 0 1.441-.193 2.113-.578l1.345 4.53z"/>
    <path fill="#C18EBD" d="M169.904 15.57c1.345-1.349 3.65-1.349 5.09 0 1.345 1.35 1.345 3.664 0 5.11-1.344 1.35-3.649 1.35-5.09 0-1.345-1.446-1.345-3.76 0-5.11zm-.192 8.967h5.474V47h-5.474V24.537z"/>
    <path fill="#000" d="M238 22.174h-15.463c.096 2.7 2.113 5.11 5.282 5.11 2.305 0 4.13-1.157 5.379-3.471l4.418 1.639c-1.921 4.338-5.283 6.556-10.181 6.556-7.684 0-10.757-6.267-10.757-11.57 0-5.398 3.073-11.568 10.757-11.568 3.554 0 6.435 1.446 8.068 3.76 1.633 2.217 2.401 4.82 2.401 7.326v2.218H238zm-15.367-4.435h9.604c-.576-2.892-2.209-4.242-4.802-4.242-2.593 0-4.418 1.928-4.802 4.242zM198.814 31.622h-5.379v-14.75c0-2.025-.96-3.086-2.689-3.086-2.786 0-4.802 3.375-4.802 9.738v8.098h-5.379V9.448h5.379v3.567c1.728-2.603 3.841-3.953 6.339-3.953 2.881 0 5.282 1.543 6.146 4.532 1.729-2.99 3.938-4.532 6.724-4.532 4.033 0 6.531 2.507 6.531 6.845v15.715h-5.379v-14.75c0-2.025-.96-3.086-2.689-3.086-2.785 0-4.802 3.278-4.802 9.256v8.58z"/>
</svg>
