<svg xmlns="http://www.w3.org/2000/svg" width="24" height="24" fill="none" viewBox="0 0 24 24">
    <path fill="currentColor" d="M17.217 0C15.185 0 13.283.946 12 2.563 10.717.946 8.815 0 6.783 0 3.043 0 0 3.18 0 7.09c0 6.727 11.193 16.38 11.67 16.787.096.082.213.123.33.123.117 0 .234-.041.33-.123C12.807 23.469 24 13.817 24 7.09 24 3.18 20.957 0 17.217 0z"/>
    <path fill="#B3B3B3" d="M18.26 24c2.882 0 5.218-2.442 5.218-5.454 0-3.013-2.336-5.455-5.217-5.455-2.882 0-5.218 2.442-5.218 5.455 0 3.012 2.336 5.454 5.218 5.454z"/>
    <path fill="#fff" d="M20.348 18h-1.566v-1.636c0-.302-.233-.546-.521-.546-.289 0-.522.244-.522.546V18h-1.565c-.288 0-.522.244-.522.546 0 .3.234.545.522.545h1.565v1.636c0 .302.233.546.521.546.289 0 .522-.244.522-.546v-1.636h1.566c.288 0 .521-.244.521-.546 0-.3-.233-.545-.521-.545z"/>
</svg>
