<svg width="27" height="24" viewBox="0 0 27 24" fill="none" xmlns="http://www.w3.org/2000/svg">
<path d="M4.5 6.5C5.60457 6.5 6.5 5.60457 6.5 4.5C6.5 3.39543 5.60457 2.5 4.5 2.5C3.39543 2.5 2.5 3.39543 2.5 4.5C2.5 5.60457 3.39543 6.5 4.5 6.5Z" stroke="black" stroke-miterlimit="10" stroke-linecap="round" stroke-linejoin="round"/>
<path d="M4.5 14.5C5.60457 14.5 6.5 13.6046 6.5 12.5C6.5 11.3954 5.60457 10.5 4.5 10.5C3.39543 10.5 2.5 11.3954 2.5 12.5C2.5 13.6046 3.39543 14.5 4.5 14.5Z" stroke="black" stroke-miterlimit="10" stroke-linecap="round" stroke-linejoin="round"/>
<path d="M4.5 22.5C5.60457 22.5 6.5 21.6046 6.5 20.5C6.5 19.3954 5.60457 18.5 4.5 18.5C3.39543 18.5 2.5 19.3954 2.5 20.5C2.5 21.6046 3.39543 22.5 4.5 22.5Z" stroke="black" stroke-miterlimit="10" stroke-linecap="round" stroke-linejoin="round"/>
<path d="M10.5 4.5H22.5" stroke="black" stroke-miterlimit="10" stroke-linecap="round" stroke-linejoin="round"/>
<path d="M10.5 12.5H22.5" stroke="black" stroke-miterlimit="10" stroke-linecap="round" stroke-linejoin="round"/>
<path d="M10.5 20.5H22.5" stroke="black" stroke-miterlimit="10" stroke-linecap="round" stroke-linejoin="round"/>
</svg>
