<svg xmlns="http://www.w3.org/2000/svg" width="19" height="24" fill="none" viewBox="0 0 19 24">
    <path fill="#DADADA" d="M15.833 12.32V3.13c0-.83-.333-1.626-.927-2.213C14.312.33 13.506 0 12.666 0c-.84 0-1.645.33-2.238.917C9.834 1.504 9.5 2.3 9.5 3.13v9.19c-1.207.688-2.15 1.752-2.684 3.025-.534 1.273-.628 2.684-.267 4.015.361 1.331 1.156 2.508 2.262 3.346 1.106.84 2.462 1.294 3.856 1.294 1.394 0 2.75-.455 3.855-1.294 1.106-.838 1.901-2.015 2.262-3.346.361-1.33.267-2.742-.266-4.015-.534-1.273-1.477-2.337-2.685-3.026z"/>
    <path fill="currentColor" d="M13.722 14.79V7.303h-2.111v7.487c-.704.246-1.298.73-1.676 1.367-.378.637-.516 1.385-.39 2.113.127.727.51 1.388 1.08 1.864.572.475 1.295.736 2.042.736.747 0 1.47-.26 2.04-.736.572-.476.954-1.137 1.08-1.864.127-.728-.011-1.476-.39-2.113-.377-.637-.97-1.121-1.675-1.367zM5.806 3.13H.528c-.14 0-.274-.055-.373-.153C.055 2.88 0 2.747 0 2.608c0-.138.056-.27.155-.369.099-.097.233-.152.373-.152h5.278c.14 0 .274.055.373.152.099.098.154.23.154.37 0 .138-.055.27-.154.368-.1.098-.234.153-.373.153zM5.805 6.26h-2.11c-.14 0-.275-.055-.374-.153-.099-.098-.155-.23-.155-.37 0-.137.056-.27.155-.368.099-.098.233-.153.373-.153h2.111c.14 0 .275.055.374.153.099.098.154.23.154.369 0 .138-.055.27-.154.369-.1.098-.234.153-.374.153zM5.806 9.39H.528c-.14 0-.274-.056-.373-.153-.1-.098-.155-.23-.155-.37 0-.138.056-.27.155-.368.099-.098.233-.153.373-.153h5.278c.14 0 .274.055.373.153.099.098.154.23.154.369 0 .138-.055.27-.154.369-.1.097-.234.152-.373.152zM5.805 12.52h-2.11c-.14 0-.275-.056-.374-.154-.099-.097-.155-.23-.155-.368 0-.139.056-.271.155-.37.099-.097.233-.152.373-.152h2.111c.14 0 .275.055.374.153.099.098.154.23.154.369 0 .138-.055.27-.154.368-.1.098-.234.153-.374.153z"/>
</svg>
