<svg xmlns="http://www.w3.org/2000/svg" width="24" height="24" fill="none" viewBox="0 0 24 24">
    <path fill="currentColor" d="M12 24C5.383 24 0 18.617 0 12S5.383 0 12 0s12 5.383 12 12-5.383 12-12 12zm0-22.957C5.958 1.043 1.043 5.958 1.043 12c0 6.041 4.915 10.956 10.957 10.956 6.041 0 10.956-4.915 10.956-10.956 0-6.042-4.915-10.957-10.956-10.957z"/>
    <path fill="currentColor" d="M12 5.217c-3.746 0-6.783 3.037-6.783 6.783 0 3.746 3.037 6.783 6.783 6.783 3.746 0 6.782-3.037 6.782-6.783 0-3.746-3.036-6.783-6.782-6.783zm0 12.522c-3.17 0-5.74-2.57-5.74-5.739 0-3.17 2.57-5.74 5.74-5.74 3.17 0 5.739 2.57 5.739 5.74 0 3.17-2.57 5.74-5.74 5.74z"/>
    <path fill="currentColor" d="M12.306 13.536c-1.1.21-2.052-.742-1.842-1.843.117-.612.617-1.112 1.23-1.229 1.1-.21 2.052.742 1.842 1.843-.117.611-.618 1.112-1.23 1.229z"/>
    <path fill="#72C472" fill-opacity=".7" d="M20.485 3.515L12 12l8.485 8.485C22.657 18.314 24 15.314 24 12c0-3.314-1.343-6.314-3.515-8.485z"/>
</svg>
